<?xml version="1.0" standalone="no"?>
<!DOCTYPE svg PUBLIC "-//W3C//DTD SVG 20010904//EN"
 "http://www.w3.org/TR/2001/REC-SVG-20010904/DTD/svg10.dtd">
<svg version="1.0" xmlns="http://www.w3.org/2000/svg"
 width="460.000000pt" height="460.000000pt" viewBox="0 0 460.000000 460.000000"
 preserveAspectRatio="xMidYMid meet">
<metadata>
Created by potrace 1.11, written by Peter Selinger 2001-2013
</metadata>
<g transform="translate(0.000000,460.000000) scale(0.100000,-0.100000)"
fill="#000000" stroke="none">
<path d="M1905 4520 c-88 -5 -214 -16 -280 -25 -173 -24 -565 -30 -1020 -14
-551 18 -487 21 -504 -26 -11 -32 -13 -90 -11 -275 4 -238 5 -629 2 -1485 0
-258 0 -589 1 -735 1 -146 -4 -354 -12 -464 -13 -207 -10 -285 24 -529 19
-141 38 -459 39 -665 l1 -164 28 -24 c24 -21 38 -24 100 -24 72 0 280 20 412
40 48 7 655 10 1912 8 1013 -2 1845 1 1850 5 4 5 9 237 9 515 1 386 -2 538
-13 637 -22 198 -10 872 19 1040 18 103 22 174 26 490 3 267 0 401 -9 480 -9
76 -13 263 -14 612 l0 503 -26 26 -26 26 -174 -13 c-290 -20 -389 -22 -774
-10 -528 16 -734 28 -865 50 -139 23 -463 32 -695 21z m635 -45 c453 -38 563
-45 850 -55 395 -14 648 -14 735 -1 39 5 120 13 181 17 l110 7 20 -39 c16 -34
19 -58 17 -172 -2 -73 -7 -181 -13 -240 -14 -149 -12 -318 5 -512 10 -115 15
-295 15 -596 0 -431 0 -432 -26 -530 -24 -96 -25 -109 -30 -519 -3 -231 -7
-421 -9 -423 -1 -1 -25 6 -52 17 -27 10 -71 22 -99 26 -62 9 -203 53 -229 71
-34 24 -328 10 -451 -20 -152 -38 -248 -67 -328 -99 -55 -21 -97 -32 -116 -29
l-30 4 60 65 c61 65 67 83 27 83 -18 0 -11 10 36 53 56 52 71 74 44 64 -8 -3
-19 -2 -26 2 -9 6 3 23 38 56 56 53 61 64 31 72 -11 3 -20 7 -20 10 0 2 22 27
49 55 50 52 55 68 21 68 -36 0 -30 19 20 61 53 45 54 65 3 71 -26 3 -25 4 26
64 28 34 51 64 51 67 0 3 -12 7 -27 9 l-27 3 32 36 c40 46 40 59 2 59 -36 0
-37 7 -5 54 29 43 30 45 10 60 -13 9 -11 18 20 64 38 58 44 82 20 82 -19 0
-19 13 -1 53 20 43 35 104 28 111 -3 3 -45 6 -94 6 -58 0 -87 4 -83 10 3 6 3
19 0 30 -5 17 -12 19 -52 13 -36 -5 -44 -3 -38 7 12 20 -15 30 -81 30 -60 0
-61 1 -56 25 5 30 -10 32 -80 10 -41 -12 -48 -12 -48 0 0 8 18 20 41 26 22 7
44 20 49 29 9 16 16 16 97 2 132 -22 137 -22 141 10 2 18 -4 35 -20 50 l-23
23 30 20 c39 27 45 62 12 70 -14 4 -41 2 -60 -3 l-35 -10 5 32 c4 23 0 36 -15
50 -24 21 -39 15 -53 -21 -5 -14 -26 -52 -47 -84 -35 -54 -39 -58 -70 -54 -18
2 -39 9 -47 15 -7 6 -55 24 -106 41 -87 28 -108 31 -274 36 -113 3 -210 1
-260 -7 -44 -6 -89 -11 -100 -9 -11 1 -68 1 -127 1 l-107 -2 -9 43 c-9 39 -8
44 21 69 16 15 62 43 101 64 178 91 214 111 266 145 116 76 187 119 195 119
11 0 112 68 120 80 13 21 -20 8 -81 -30 -35 -22 -67 -40 -71 -40 -3 0 -34 -17
-67 -38 -117 -73 -171 -106 -231 -138 -33 -17 -84 -45 -113 -63 -30 -17 -68
-37 -85 -45 -56 -23 -98 -65 -92 -92 3 -13 7 -36 10 -50 5 -24 4 -25 -31 -22
-33 3 -38 7 -56 52 l-19 48 28 37 c15 20 55 65 88 101 91 95 126 136 188 222
31 42 62 80 68 83 9 6 49 88 49 101 0 18 -20 -5 -45 -51 -16 -30 -33 -55 -37
-55 -5 0 -17 -14 -27 -31 -11 -18 -35 -50 -55 -73 -96 -113 -214 -245 -248
-278 -42 -42 -45 -53 -23 -105 21 -51 19 -55 -22 -48 -21 3 -53 8 -70 11 -35
5 -43 -6 -20 -28 8 -7 12 -20 10 -29 -3 -11 3 -20 16 -24 12 -3 19 -11 16 -16
-4 -5 5 -13 19 -19 24 -9 96 -106 96 -129 0 -5 -13 -19 -30 -31 l-29 -21 -7
26 c-3 14 -10 25 -15 25 -5 0 -40 -31 -78 -70 -39 -38 -74 -70 -79 -70 -5 0
-12 14 -15 30 -4 17 -10 30 -14 30 -5 0 -26 -21 -48 -46 -22 -25 -59 -66 -82
-91 -24 -25 -43 -49 -43 -55 0 -5 -9 -18 -20 -30 -22 -24 -94 -157 -126 -233
-11 -28 -24 -74 -28 -103 -8 -61 -15 -82 -27 -82 -5 0 -9 28 -9 63 0 34 -7 89
-16 122 -8 33 -19 78 -25 99 -9 37 -100 187 -140 231 -10 11 -24 31 -31 45
-51 95 -103 136 -110 88 -3 -20 -12 -14 -84 55 -45 42 -84 77 -88 77 -3 0 -6
-11 -6 -25 l0 -25 -61 31 c-50 26 -63 29 -70 18 -11 -19 -68 11 -132 71 -44
40 -50 43 -61 27 -12 -15 -18 -14 -84 18 -84 42 -102 44 -102 11 l0 -24 -42
20 c-23 11 -46 25 -52 32 -8 7 -11 172 -12 511 0 275 -2 570 -5 655 -2 85 0
181 4 212 l8 57 287 -5 c158 -3 397 -9 532 -13 251 -7 399 -2 760 24 333 25
531 25 830 0z m-2313 -1528 c26 -12 53 -3 53 18 0 19 -1 19 67 -11 32 -14 66
-23 76 -20 13 3 31 -7 53 -30 19 -19 39 -34 45 -34 5 0 27 -11 47 -25 40 -27
68 -32 74 -13 3 8 15 4 37 -11 23 -17 42 -22 67 -19 30 4 41 -1 72 -31 45 -44
96 -81 111 -81 6 0 11 7 11 16 0 10 14 -1 35 -26 19 -23 35 -46 35 -52 0 -10
61 -91 72 -96 4 -2 17 -22 28 -45 11 -23 27 -53 35 -67 46 -80 50 -100 50
-270 -1 -156 -2 -169 -28 -234 -56 -140 -103 -196 -163 -196 -26 0 -36 7 -53
34 -12 18 -21 39 -21 45 0 20 -99 143 -170 211 -116 113 -121 116 -310 219
-52 28 -276 101 -311 101 -18 0 -19 13 -19 334 l0 335 43 -21 c23 -11 52 -25
64 -31z m2697 -142 c-9 -23 21 -29 73 -15 40 12 46 11 55 -3 7 -13 24 -17 73
-17 58 0 64 -2 67 -22 3 -21 9 -23 56 -23 41 0 52 -3 52 -16 0 -18 44 -29 118
-29 51 0 52 -9 17 -86 -28 -61 -32 -94 -11 -94 10 0 2 -23 -25 -75 -32 -62
-35 -76 -23 -83 13 -7 12 -12 -6 -34 -23 -30 -17 -58 11 -58 26 0 24 -7 -11
-47 -39 -43 -40 -68 -4 -59 26 7 25 5 -15 -45 -44 -55 -52 -88 -23 -96 16 -4
13 -10 -20 -46 -42 -46 -46 -73 -10 -70 12 2 22 1 22 -2 0 -2 -20 -27 -45 -55
-45 -51 -58 -90 -30 -90 9 0 -8 -23 -40 -55 -55 -53 -64 -82 -23 -72 14 4 8
-7 -21 -39 -38 -41 -54 -84 -31 -84 6 0 10 -7 10 -15 0 -8 -4 -15 -9 -15 -20
0 -92 -85 -88 -102 3 -10 -2 -20 -12 -23 -9 -3 -34 -21 -56 -39 -35 -30 -38
-37 -28 -54 10 -18 5 -21 -73 -47 -82 -27 -96 -39 -72 -63 6 -6 10 -13 7 -15
-9 -8 -127 -50 -166 -60 -44 -11 -52 -24 -31 -45 21 -21 2 -23 -69 -6 -82 20
-107 15 -101 -21 7 -33 -1 -35 -178 -38 -119 -2 -158 1 -194 15 -25 9 -79 26
-120 38 -132 38 -237 101 -325 194 -51 54 -65 77 -89 148 -25 72 -28 95 -24
159 5 81 23 119 102 213 112 133 312 303 412 350 17 8 59 33 92 56 34 22 67
40 74 40 7 0 29 8 48 19 19 10 46 22 60 26 14 4 32 13 40 20 8 7 40 20 70 28
97 26 160 52 160 65 0 6 -4 12 -10 12 -24 0 -293 -92 -365 -125 -109 -51 -199
-97 -205 -106 -3 -4 -21 -14 -40 -23 -19 -9 -62 -36 -95 -61 -33 -24 -85 -62
-116 -84 -30 -22 -95 -78 -145 -125 -79 -76 -93 -86 -126 -86 -20 0 -44 3 -53
6 -23 9 -101 132 -114 180 -15 54 -13 198 3 264 14 54 57 164 70 177 3 3 6 14
6 23 0 24 102 173 174 254 l61 69 9 -26 c6 -15 17 -27 25 -27 9 0 46 32 82 71
58 61 68 68 73 51 9 -27 32 -34 47 -16 10 12 13 12 25 -3 18 -24 17 -43 -1
-43 -8 0 -15 5 -15 10 0 6 -9 10 -20 10 -11 0 -20 -6 -20 -14 0 -22 29 -46 56
-46 13 0 52 -20 87 -45 65 -48 108 -66 114 -48 9 25 80 117 102 132 l25 16
-18 -28 c-29 -43 -8 -127 30 -127 17 0 19 36 3 46 -15 9 -4 60 21 91 20 26 20
26 20 3 0 -28 50 -109 68 -110 24 0 24 29 -2 63 -21 27 -26 45 -26 91 0 54 1
56 18 39 41 -42 92 -131 92 -161 0 -30 15 -50 28 -37 4 4 6 26 5 50 -1 32 -11
56 -38 93 l-36 51 28 3 c16 2 51 -9 84 -25 40 -21 63 -26 82 -22 15 4 27 11
27 16 0 5 16 9 35 9 19 0 35 4 35 9 0 5 28 11 63 14 34 2 85 11 112 19 68 21
96 22 89 3z m-991 -51 c27 -27 101 -54 147 -54 l27 0 -21 -45 c-24 -50 -51
-58 -82 -24 -10 12 -31 27 -46 35 -21 11 -28 22 -28 42 0 30 -16 57 -40 65
-13 5 -12 6 1 6 9 1 28 -11 42 -25z m-1713 -484 c34 -11 70 -20 79 -20 9 0 43
-20 76 -45 33 -25 65 -45 73 -45 28 0 265 -190 298 -240 13 -19 31 -46 40 -60
9 -14 25 -37 35 -52 11 -15 19 -35 19 -45 0 -10 11 -45 25 -78 35 -85 33 -146
-6 -232 -26 -54 -44 -77 -92 -115 -33 -27 -67 -48 -76 -48 -9 0 -27 -9 -41
-20 -14 -11 -31 -20 -37 -20 -7 0 -34 -11 -60 -24 -95 -47 -242 -90 -362 -104
l-70 -8 -7 65 c-11 94 -8 299 6 416 7 55 13 234 14 397 1 213 4 298 12 298 6
0 40 -9 74 -20z m3165 -872 c-31 -98 -37 -132 -39 -193 -1 -66 1 -73 38 -127
26 -40 47 -59 66 -63 15 -3 36 -15 45 -25 17 -19 16 -21 -41 -46 -32 -15 -78
-40 -101 -56 l-43 -29 6 73 c6 72 6 74 -27 115 -21 27 -57 54 -95 73 -57 28
-70 30 -168 30 -103 0 -106 1 -96 20 6 10 28 25 50 31 47 14 49 21 13 44 l-26
18 29 14 c16 8 46 27 67 41 21 14 50 26 65 28 28 3 88 21 177 54 71 26 89 26
80 -2z m-510 -248 c-3 -5 -12 -10 -18 -10 -7 0 -6 4 3 10 19 12 23 12 15 0z
m-94 -156 c-21 -49 -53 -138 -71 -198 -18 -60 -47 -139 -65 -175 l-33 -65 -7
82 c-8 92 -49 191 -104 254 -26 30 -29 37 -15 42 10 4 14 13 11 26 -4 16 -1
19 16 15 12 -3 53 -12 90 -20 38 -8 73 -13 77 -10 5 3 1 20 -10 37 l-19 32 82
36 c45 20 83 36 84 35 1 0 -15 -41 -36 -91z m1289 26 c71 -9 77 -12 117 -55
23 -24 53 -47 67 -51 34 -8 33 -13 -9 -54 -38 -37 -81 -146 -71 -183 4 -17 -4
-30 -33 -54 -123 -103 -371 -135 -520 -68 l-63 29 -17 -23 c-10 -13 -23 -52
-30 -87 -14 -67 -47 -123 -107 -181 -39 -37 -79 -46 -214 -47 -52 -1 -112 -6
-132 -10 -32 -7 -40 -5 -62 17 -20 20 -26 36 -26 70 0 89 75 249 163 348 81
91 259 227 327 250 14 4 57 20 95 34 118 45 156 54 255 63 131 13 173 13 260
2z m350 -293 c0 -153 -2 -176 -17 -189 -28 -25 -59 -30 -73 -13 -7 8 -18 15
-24 15 -26 0 -84 67 -96 109 -30 113 66 249 178 251 l32 0 0 -173z m-162 -191
c41 -43 52 -49 87 -49 22 0 47 2 55 4 18 5 27 -65 29 -223 1 -108 -8 -137 -33
-103 -11 15 -34 16 -227 12 -117 -2 -335 -10 -482 -18 -251 -12 -270 -12 -278
4 -6 9 -27 28 -47 42 -33 22 -34 25 -13 25 12 0 55 15 94 34 40 18 84 36 98
39 15 4 64 24 110 46 46 21 102 44 124 51 62 20 115 51 115 66 0 19 1 19 -95
-26 -47 -22 -90 -40 -96 -40 -6 0 -49 -18 -95 -40 -46 -22 -95 -42 -110 -46
l-27 -7 26 44 27 44 59 0 c65 0 90 15 111 66 l12 29 92 0 c124 0 210 20 298
70 40 23 77 46 83 51 6 6 14 3 22 -8 7 -10 34 -40 61 -67z m-928 -350 l55 -31
-130 -3 c-158 -4 -195 2 -195 28 0 58 172 63 270 6z"/>
<path d="M3393 850 c-38 -23 -41 -35 -12 -50 39 -21 109 12 109 52 0 25 -55
24 -97 -2z"/>
</g>
</svg>
